<svg id="Шар_1" data-name="Шар 1" xmlns="http://www.w3.org/2000/svg" viewBox="0 0 512 512"><defs><style>.cls-1{fill:#fff;}</style></defs><rect x="5" y="5" width="502" height="502" rx="95"/><path d="M412,10a90.1,90.1,0,0,1,90,90V412a90.1,90.1,0,0,1-90,90H100a90.1,90.1,0,0,1-90-90V100a90.1,90.1,0,0,1,90-90H412m0-10H100A100,100,0,0,0,0,100V412A100,100,0,0,0,100,512H412A100,100,0,0,0,512,412V100A100,100,0,0,0,412,0Z"/><path d="M256,379a123,123,0,0,1-35.2-240.88A133.28,133.28,0,0,0,219,160c0,73.34,59.66,133,133,133a134.47,134.47,0,0,0,21.88-1.79A123.06,123.06,0,0,1,256,379Z"/><path class="cls-1" d="M214.77,145.42A138.9,138.9,0,0,0,214,160c0,76.09,61.91,138,138,138a138.9,138.9,0,0,0,14.58-.77A118.72,118.72,0,0,1,330,347.91,118,118,0,0,1,164.09,182a118.72,118.72,0,0,1,50.68-36.57m12.47-14.18A128,128,0,1,0,380.76,284.76,128.13,128.13,0,0,1,227.24,131.24Z"/></svg>