<svg id="Шар_1" data-name="Шар 1" xmlns="http://www.w3.org/2000/svg" viewBox="0 0 512 512"><defs><style>.cls-1{fill:#fff;}.cls-2{fill:none;stroke:#000;stroke-linecap:round;stroke-miterlimit:10;stroke-width:8.33px;}</style></defs><rect class="cls-1" x="5" y="5" width="502" height="502" rx="95"/><path d="M412,10a90.1,90.1,0,0,1,90,90V412a90.1,90.1,0,0,1-90,90H100a90.1,90.1,0,0,1-90-90V100a90.1,90.1,0,0,1,90-90H412m0-10H100A100,100,0,0,0,0,100V412A100,100,0,0,0,100,512H412A100,100,0,0,0,512,412V100A100,100,0,0,0,412,0Z"/><circle class="cls-1" cx="256" cy="256" r="123"/><path d="M256,138a118,118,0,1,1-83.44,34.56A117.22,117.22,0,0,1,256,138m0-10A128,128,0,1,0,384,256,128,128,0,0,0,256,128Z"/><line class="cls-2" x1="256" y1="100" x2="256" y2="50"/><line class="cls-2" x1="256" y1="462" x2="256" y2="412"/><line class="cls-2" x1="50" y1="256" x2="100" y2="256"/><line class="cls-2" x1="412" y1="256" x2="462" y2="256"/><line class="cls-2" x1="145.69" y1="145.69" x2="110.34" y2="110.34"/><line class="cls-2" x1="401.66" y1="401.66" x2="366.31" y2="366.31"/><line class="cls-2" x1="110.34" y1="401.66" x2="145.69" y2="366.31"/><line class="cls-2" x1="366.31" y1="145.69" x2="401.66" y2="110.34"/></svg>