<svg id="Шар_1" data-name="Шар 1" xmlns="http://www.w3.org/2000/svg" viewBox="0 0 512 512"><defs><style>.cls-1{fill:#fff;}.cls-2{fill:none;stroke:#fff;stroke-linecap:round;stroke-miterlimit:10;stroke-width:34.64px;}</style></defs><path d="M256,492A236,236,0,0,1,89.12,89.12,236,236,0,0,1,422.88,422.88,234.48,234.48,0,0,1,256,492Z"/><path class="cls-1" d="M256,40a216.07,216.07,0,0,1,84.06,415A216.06,216.06,0,0,1,171.94,57,214.61,214.61,0,0,1,256,40m0-40C114.62,0,0,114.62,0,256S114.62,512,256,512,512,397.38,512,256,397.38,0,256,0Z"/><line class="cls-2" x1="106" y1="306" x2="256" y2="206"/><line class="cls-2" x1="406" y1="306" x2="256" y2="206"/></svg>