<?xml version="1.0" encoding="utf-8"?><svg viewBox="0 0 512 512" xmlns="http://www.w3.org/2000/svg" xmlns:xlink="http://www.w3.org/1999/xlink"><style>:root>svg{display:none}:root>svg:target{display:block}</style><svg data-name="Шар 1" viewBox="0 0 512 512" id="dark-mode" xmlns="http://www.w3.org/2000/svg"><rect x="5" y="5" width="502" height="502" rx="95"/><path d="M412 10a90.1 90.1 0 0 1 90 90v312a90.1 90.1 0 0 1-90 90H100a90.1 90.1 0 0 1-90-90V100a90.1 90.1 0 0 1 90-90h312m0-10H100A100 100 0 0 0 0 100v312a100 100 0 0 0 100 100h312a100 100 0 0 0 100-100V100A100 100 0 0 0 412 0Z"/><path d="M256 379a123 123 0 0 1-35.2-240.88A133.28 133.28 0 0 0 219 160c0 73.34 59.66 133 133 133a134.47 134.47 0 0 0 21.88-1.79A123.06 123.06 0 0 1 256 379Z"/><path d="M214.77 145.42A138.9 138.9 0 0 0 214 160c0 76.09 61.91 138 138 138a138.9 138.9 0 0 0 14.58-.77A118.72 118.72 0 0 1 330 347.91 118 118 0 0 1 164.09 182a118.72 118.72 0 0 1 50.68-36.57m12.47-14.18a128 128 0 1 0 153.52 153.51 128.13 128.13 0 0 1-153.52-153.52Z" style="fill:#fff"/></svg><svg id="light-mode" data-name="Шар 1" viewBox="0 0 512 512" xmlns="http://www.w3.org/2000/svg"><defs><style>.bcls-1{fill:#fff}.bcls-2{fill:none;stroke:#000;stroke-linecap:round;stroke-miterlimit:10;stroke-width:8.33px}</style></defs><rect class="bcls-1" x="5" y="5" width="502" height="502" rx="95"/><path d="M412 10a90.1 90.1 0 0 1 90 90v312a90.1 90.1 0 0 1-90 90H100a90.1 90.1 0 0 1-90-90V100a90.1 90.1 0 0 1 90-90h312m0-10H100A100 100 0 0 0 0 100v312a100 100 0 0 0 100 100h312a100 100 0 0 0 100-100V100A100 100 0 0 0 412 0Z"/><circle class="bcls-1" cx="256" cy="256" r="123"/><path d="M256 138a118 118 0 1 1-83.44 34.56A117.22 117.22 0 0 1 256 138m0-10a128 128 0 1 0 128 128 128 128 0 0 0-128-128Z"/><path class="bcls-2" d="M256 100V50M256 462v-50M50 256h50M412 256h50M145.69 145.69l-35.35-35.35M401.66 401.66l-35.35-35.35M110.34 401.66l35.35-35.35M366.31 145.69l35.35-35.35"/></svg><svg id="scroll-up-dark-mode" data-name="Шар 1" viewBox="0 0 512 512" xmlns="http://www.w3.org/2000/svg"><defs><style>.ccls-2{fill:none;stroke:#fff;stroke-linecap:round;stroke-miterlimit:10;stroke-width:34.64px}</style></defs><path d="M256 492A236 236 0 0 1 89.12 89.12a236 236 0 0 1 333.76 333.76A234.48 234.48 0 0 1 256 492Z"/><path d="M256 40a216.07 216.07 0 0 1 84.06 415A216.06 216.06 0 0 1 171.94 57 214.61 214.61 0 0 1 256 40m0-40C114.62 0 0 114.62 0 256s114.62 256 256 256 256-114.62 256-256S397.38 0 256 0Z" style="fill:#fff"/><path class="ccls-2" d="m106 306 150-100M406 306 256 206"/></svg><svg id="scroll-up-light-mode" data-name="Шар 1" viewBox="0 0 512 512" xmlns="http://www.w3.org/2000/svg"><defs><style>.dcls-2{fill:none;stroke:#000;stroke-linecap:round;stroke-miterlimit:10;stroke-width:34.64px}</style></defs><path d="M256 492A236 236 0 0 1 89.12 89.12a236 236 0 0 1 333.76 333.76A234.48 234.48 0 0 1 256 492Z" style="fill:#fff"/><path d="M256 40a216.07 216.07 0 0 1 84.06 415A216.06 216.06 0 0 1 171.94 57 214.61 214.61 0 0 1 256 40m0-40C114.62 0 0 114.62 0 256s114.62 256 256 256 256-114.62 256-256S397.38 0 256 0Z"/><path class="dcls-2" d="m106 306 150-100M406 306 256 206"/></svg></svg>